<svg xmlns="http://www.w3.org/2000/svg" version="1.1" xmlns:xlink="http://www.w3.org/1999/xlink" xmlns:svgjs="http://svgjs.dev/svgjs" width="700" height="700" id="root"><g filter="url(#noise)"><circle r="11.655000000000001" cx="0" cy="0" fill="#000000"></circle><circle r="11.655000000000001" cx="0" cy="36.8421052631579" fill="#000000"></circle><circle r="11.655000000000001" cx="0" cy="73.6842105263158" fill="#000000"></circle><circle r="11.655000000000001" cx="0" cy="110.5263157894737" fill="#000000"></circle><circle r="11.655000000000001" cx="0" cy="147.3684210526316" fill="#000000"></circle><circle r="11.655000000000001" cx="0" cy="184.21052631578948" fill="#000000"></circle><circle r="11.655000000000001" cx="0" cy="221.0526315789474" fill="#000000"></circle><circle r="11.655000000000001" cx="0" cy="257.89473684210526" fill="#000000"></circle><circle r="11.655000000000001" cx="0" cy="294.7368421052632" fill="#000000"></circle><circle r="11.655000000000001" cx="0" cy="331.5789473684211" fill="#000000"></circle><circle r="11.655000000000001" cx="0" cy="368.42105263157896" fill="#000000"></circle><circle r="11.655000000000001" cx="0" cy="405.2631578947369" fill="#000000"></circle><circle r="11.655000000000001" cx="0" cy="442.1052631578948" fill="#000000"></circle><circle r="11.655000000000001" cx="0" cy="478.94736842105266" fill="#000000"></circle><circle r="11.655000000000001" cx="0" cy="515.7894736842105" fill="#000000"></circle><circle r="11.655000000000001" cx="0" cy="552.6315789473684" fill="#000000"></circle><circle r="11.655000000000001" cx="0" cy="589.4736842105264" fill="#000000"></circle><circle r="11.655000000000001" cx="0" cy="626.3157894736843" fill="#000000"></circle><circle r="11.655000000000001" cx="0" cy="663.1578947368422" fill="#000000"></circle><circle r="11.655000000000001" cx="0" cy="700" fill="#000000"></circle><circle r="11.655000000000001" cx="36.8421052631579" cy="0" fill="#000000"></circle><circle r="11.655000000000001" cx="36.8421052631579" cy="36.8421052631579" fill="#000000"></circle><circle r="11.655000000000001" cx="36.8421052631579" cy="73.6842105263158" fill="#000000"></circle><circle r="11.655000000000001" cx="36.8421052631579" cy="110.5263157894737" fill="#000000"></circle><circle r="11.655000000000001" cx="36.8421052631579" cy="147.3684210526316" fill="#000000"></circle><circle r="11.655000000000001" cx="36.8421052631579" cy="184.21052631578948" fill="#000000"></circle><circle r="11.655000000000001" cx="36.8421052631579" cy="221.0526315789474" fill="#000000"></circle><circle r="11.655000000000001" cx="36.8421052631579" cy="257.89473684210526" fill="#000000"></circle><circle r="11.655000000000001" cx="36.8421052631579" cy="294.7368421052632" fill="#000000"></circle><circle r="11.655000000000001" cx="36.8421052631579" cy="331.5789473684211" fill="#000000"></circle><circle r="11.655000000000001" cx="36.8421052631579" cy="368.42105263157896" fill="#000000"></circle><circle r="11.655000000000001" cx="36.8421052631579" cy="405.2631578947369" fill="#000000"></circle><circle r="11.655000000000001" cx="36.8421052631579" cy="442.1052631578948" fill="#000000"></circle><circle r="11.655000000000001" cx="36.8421052631579" cy="478.94736842105266" fill="#000000"></circle><circle r="11.655000000000001" cx="36.8421052631579" cy="515.7894736842105" fill="#000000"></circle><circle r="11.655000000000001" cx="36.8421052631579" cy="552.6315789473684" fill="#000000"></circle><circle r="11.655000000000001" cx="36.8421052631579" cy="589.4736842105264" fill="#000000"></circle><circle r="11.655000000000001" cx="36.8421052631579" cy="626.3157894736843" fill="#000000"></circle><circle r="11.655000000000001" cx="36.8421052631579" cy="663.1578947368422" fill="#000000"></circle><circle r="11.655000000000001" cx="36.8421052631579" cy="700" fill="#000000"></circle><circle r="11.655000000000001" cx="73.6842105263158" cy="0" fill="#000000"></circle><circle r="11.655000000000001" cx="73.6842105263158" cy="36.8421052631579" fill="#000000"></circle><circle r="11.655000000000001" cx="73.6842105263158" cy="73.6842105263158" fill="#000000"></circle><circle r="11.655000000000001" cx="73.6842105263158" cy="110.5263157894737" fill="#000000"></circle><circle r="11.655000000000001" cx="73.6842105263158" cy="147.3684210526316" fill="#000000"></circle><circle r="11.655000000000001" cx="73.6842105263158" cy="184.21052631578948" fill="#000000"></circle><circle r="11.655000000000001" cx="73.6842105263158" cy="221.0526315789474" fill="#000000"></circle><circle r="11.655000000000001" cx="73.6842105263158" cy="257.89473684210526" fill="#000000"></circle><circle r="11.655000000000001" cx="73.6842105263158" cy="294.7368421052632" fill="#000000"></circle><circle r="11.655000000000001" cx="73.6842105263158" cy="331.5789473684211" fill="#000000"></circle><circle r="11.655000000000001" cx="73.6842105263158" cy="368.42105263157896" fill="#000000"></circle><circle r="11.655000000000001" cx="73.6842105263158" cy="405.2631578947369" fill="#000000"></circle><circle r="11.655000000000001" cx="73.6842105263158" cy="442.1052631578948" fill="#000000"></circle><circle r="11.655000000000001" cx="73.6842105263158" cy="478.94736842105266" fill="#000000"></circle><circle r="11.655000000000001" cx="73.6842105263158" cy="515.7894736842105" fill="#000000"></circle><circle r="11.655000000000001" cx="73.6842105263158" cy="552.6315789473684" fill="#000000"></circle><circle r="11.655000000000001" cx="73.6842105263158" cy="589.4736842105264" fill="#000000"></circle><circle r="11.655000000000001" cx="73.6842105263158" cy="626.3157894736843" fill="#000000"></circle><circle r="11.655000000000001" cx="73.6842105263158" cy="663.1578947368422" fill="#000000"></circle><circle r="11.655000000000001" cx="73.6842105263158" cy="700" fill="#000000"></circle><circle r="11.655000000000001" cx="110.5263157894737" cy="0" fill="#000000"></circle><circle r="11.655000000000001" cx="110.5263157894737" cy="36.8421052631579" fill="#000000"></circle><circle r="11.655000000000001" cx="110.5263157894737" cy="73.6842105263158" fill="#000000"></circle><circle r="11.655000000000001" cx="110.5263157894737" cy="110.5263157894737" fill="#000000"></circle><circle r="11.655000000000001" cx="110.5263157894737" cy="147.3684210526316" fill="#000000"></circle><circle r="11.655000000000001" cx="110.5263157894737" cy="184.21052631578948" fill="#000000"></circle><circle r="11.655000000000001" cx="110.5263157894737" cy="221.0526315789474" fill="#000000"></circle><circle r="11.655000000000001" cx="110.5263157894737" cy="257.89473684210526" fill="#000000"></circle><circle r="11.655000000000001" cx="110.5263157894737" cy="294.7368421052632" fill="#000000"></circle><circle r="11.655000000000001" cx="110.5263157894737" cy="331.5789473684211" fill="#000000"></circle><circle r="11.655000000000001" cx="110.5263157894737" cy="368.42105263157896" fill="#000000"></circle><circle r="11.655000000000001" cx="110.5263157894737" cy="405.2631578947369" fill="#000000"></circle><circle r="11.655000000000001" cx="110.5263157894737" cy="442.1052631578948" fill="#000000"></circle><circle r="11.655000000000001" cx="110.5263157894737" cy="478.94736842105266" fill="#000000"></circle><circle r="11.655000000000001" cx="110.5263157894737" cy="515.7894736842105" fill="#000000"></circle><circle r="11.655000000000001" cx="110.5263157894737" cy="552.6315789473684" fill="#000000"></circle><circle r="11.655000000000001" cx="110.5263157894737" cy="589.4736842105264" fill="#000000"></circle><circle r="11.655000000000001" cx="110.5263157894737" cy="626.3157894736843" fill="#000000"></circle><circle r="11.655000000000001" cx="110.5263157894737" cy="663.1578947368422" fill="#000000"></circle><circle r="11.655000000000001" cx="110.5263157894737" cy="700" fill="#000000"></circle><circle r="11.655000000000001" cx="147.3684210526316" cy="0" fill="#000000"></circle><circle r="11.655000000000001" cx="147.3684210526316" cy="36.8421052631579" fill="#000000"></circle><circle r="11.655000000000001" cx="147.3684210526316" cy="73.6842105263158" fill="#000000"></circle><circle r="11.655000000000001" cx="147.3684210526316" cy="110.5263157894737" fill="#000000"></circle><circle r="11.655000000000001" cx="147.3684210526316" cy="147.3684210526316" fill="#000000"></circle><circle r="11.655000000000001" cx="147.3684210526316" cy="184.21052631578948" fill="#000000"></circle><circle r="11.655000000000001" cx="147.3684210526316" cy="221.0526315789474" fill="#000000"></circle><circle r="11.655000000000001" cx="147.3684210526316" cy="257.89473684210526" fill="#000000"></circle><circle r="11.655000000000001" cx="147.3684210526316" cy="294.7368421052632" fill="#000000"></circle><circle r="11.655000000000001" cx="147.3684210526316" cy="331.5789473684211" fill="#000000"></circle><circle r="11.655000000000001" cx="147.3684210526316" cy="368.42105263157896" fill="#000000"></circle><circle r="11.655000000000001" cx="147.3684210526316" cy="405.2631578947369" fill="#000000"></circle><circle r="11.655000000000001" cx="147.3684210526316" cy="442.1052631578948" fill="#000000"></circle><circle r="11.655000000000001" cx="147.3684210526316" cy="478.94736842105266" fill="#000000"></circle><circle r="11.655000000000001" cx="147.3684210526316" cy="515.7894736842105" fill="#000000"></circle><circle r="11.655000000000001" cx="147.3684210526316" cy="552.6315789473684" fill="#000000"></circle><circle r="11.655000000000001" cx="147.3684210526316" cy="589.4736842105264" fill="#000000"></circle><circle r="11.655000000000001" cx="147.3684210526316" cy="626.3157894736843" fill="#000000"></circle><circle r="11.655000000000001" cx="147.3684210526316" cy="663.1578947368422" fill="#000000"></circle><circle r="11.655000000000001" cx="147.3684210526316" cy="700" fill="#000000"></circle><circle r="11.655000000000001" cx="184.21052631578948" cy="0" fill="#000000"></circle><circle r="11.655000000000001" cx="184.21052631578948" cy="36.8421052631579" fill="#000000"></circle><circle r="11.655000000000001" cx="184.21052631578948" cy="73.6842105263158" fill="#000000"></circle><circle r="11.655000000000001" cx="184.21052631578948" cy="110.5263157894737" fill="#000000"></circle><circle r="11.655000000000001" cx="184.21052631578948" cy="147.3684210526316" fill="#000000"></circle><circle r="11.655000000000001" cx="184.21052631578948" cy="184.21052631578948" fill="#000000"></circle><circle r="11.655000000000001" cx="184.21052631578948" cy="221.0526315789474" fill="#000000"></circle><circle r="11.655000000000001" cx="184.21052631578948" cy="257.89473684210526" fill="#000000"></circle><circle r="11.655000000000001" cx="184.21052631578948" cy="294.7368421052632" fill="#000000"></circle><circle r="11.655000000000001" cx="184.21052631578948" cy="331.5789473684211" fill="#000000"></circle><circle r="11.655000000000001" cx="184.21052631578948" cy="368.42105263157896" fill="#000000"></circle><circle r="11.655000000000001" cx="184.21052631578948" cy="405.2631578947369" fill="#000000"></circle><circle r="11.655000000000001" cx="184.21052631578948" cy="442.1052631578948" fill="#000000"></circle><circle r="11.655000000000001" cx="184.21052631578948" cy="478.94736842105266" fill="#000000"></circle><circle r="11.655000000000001" cx="184.21052631578948" cy="515.7894736842105" fill="#000000"></circle><circle r="11.655000000000001" cx="184.21052631578948" cy="552.6315789473684" fill="#000000"></circle><circle r="11.655000000000001" cx="184.21052631578948" cy="589.4736842105264" fill="#000000"></circle><circle r="11.655000000000001" cx="184.21052631578948" cy="626.3157894736843" fill="#000000"></circle><circle r="11.655000000000001" cx="184.21052631578948" cy="663.1578947368422" fill="#000000"></circle><circle r="11.655000000000001" cx="184.21052631578948" cy="700" fill="#000000"></circle><circle r="11.655000000000001" cx="221.0526315789474" cy="0" fill="#000000"></circle><circle r="11.655000000000001" cx="221.0526315789474" cy="36.8421052631579" fill="#000000"></circle><circle r="11.655000000000001" cx="221.0526315789474" cy="73.6842105263158" fill="#000000"></circle><circle r="11.655000000000001" cx="221.0526315789474" cy="110.5263157894737" fill="#000000"></circle><circle r="11.655000000000001" cx="221.0526315789474" cy="147.3684210526316" fill="#000000"></circle><circle r="11.655000000000001" cx="221.0526315789474" cy="184.21052631578948" fill="#000000"></circle><circle r="11.655000000000001" cx="221.0526315789474" cy="221.0526315789474" fill="#000000"></circle><circle r="11.655000000000001" cx="221.0526315789474" cy="257.89473684210526" fill="#000000"></circle><circle r="11.655000000000001" cx="221.0526315789474" cy="294.7368421052632" fill="#000000"></circle><circle r="11.655000000000001" cx="221.0526315789474" cy="331.5789473684211" fill="#000000"></circle><circle r="11.655000000000001" cx="221.0526315789474" cy="368.42105263157896" fill="#000000"></circle><circle r="11.655000000000001" cx="221.0526315789474" cy="405.2631578947369" fill="#000000"></circle><circle r="11.655000000000001" cx="221.0526315789474" cy="442.1052631578948" fill="#000000"></circle><circle r="11.655000000000001" cx="221.0526315789474" cy="478.94736842105266" fill="#000000"></circle><circle r="11.655000000000001" cx="221.0526315789474" cy="515.7894736842105" fill="#000000"></circle><circle r="11.655000000000001" cx="221.0526315789474" cy="552.6315789473684" fill="#000000"></circle><circle r="11.655000000000001" cx="221.0526315789474" cy="589.4736842105264" fill="#000000"></circle><circle r="11.655000000000001" cx="221.0526315789474" cy="626.3157894736843" fill="#000000"></circle><circle r="11.655000000000001" cx="221.0526315789474" cy="663.1578947368422" fill="#000000"></circle><circle r="11.655000000000001" cx="221.0526315789474" cy="700" fill="#000000"></circle><circle r="11.655000000000001" cx="257.89473684210526" cy="0" fill="#000000"></circle><circle r="11.655000000000001" cx="257.89473684210526" cy="36.8421052631579" fill="#000000"></circle><circle r="11.655000000000001" cx="257.89473684210526" cy="73.6842105263158" fill="#000000"></circle><circle r="11.655000000000001" cx="257.89473684210526" cy="110.5263157894737" fill="#000000"></circle><circle r="11.655000000000001" cx="257.89473684210526" cy="147.3684210526316" fill="#000000"></circle><circle r="11.655000000000001" cx="257.89473684210526" cy="184.21052631578948" fill="#000000"></circle><circle r="11.655000000000001" cx="257.89473684210526" cy="221.0526315789474" fill="#000000"></circle><circle r="11.655000000000001" cx="257.89473684210526" cy="257.89473684210526" fill="#000000"></circle><circle r="11.655000000000001" cx="257.89473684210526" cy="294.7368421052632" fill="#000000"></circle><circle r="11.655000000000001" cx="257.89473684210526" cy="331.5789473684211" fill="#000000"></circle><circle r="11.655000000000001" cx="257.89473684210526" cy="368.42105263157896" fill="#000000"></circle><circle r="11.655000000000001" cx="257.89473684210526" cy="405.2631578947369" fill="#000000"></circle><circle r="11.655000000000001" cx="257.89473684210526" cy="442.1052631578948" fill="#000000"></circle><circle r="11.655000000000001" cx="257.89473684210526" cy="478.94736842105266" fill="#000000"></circle><circle r="11.655000000000001" cx="257.89473684210526" cy="515.7894736842105" fill="#000000"></circle><circle r="11.655000000000001" cx="257.89473684210526" cy="552.6315789473684" fill="#000000"></circle><circle r="11.655000000000001" cx="257.89473684210526" cy="589.4736842105264" fill="#000000"></circle><circle r="11.655000000000001" cx="257.89473684210526" cy="626.3157894736843" fill="#000000"></circle><circle r="11.655000000000001" cx="257.89473684210526" cy="663.1578947368422" fill="#000000"></circle><circle r="11.655000000000001" cx="257.89473684210526" cy="700" fill="#000000"></circle><circle r="11.655000000000001" cx="294.7368421052632" cy="0" fill="#000000"></circle><circle r="11.655000000000001" cx="294.7368421052632" cy="36.8421052631579" fill="#000000"></circle><circle r="11.655000000000001" cx="294.7368421052632" cy="73.6842105263158" fill="#000000"></circle><circle r="11.655000000000001" cx="294.7368421052632" cy="110.5263157894737" fill="#000000"></circle><circle r="11.655000000000001" cx="294.7368421052632" cy="147.3684210526316" fill="#000000"></circle><circle r="11.655000000000001" cx="294.7368421052632" cy="184.21052631578948" fill="#000000"></circle><circle r="11.655000000000001" cx="294.7368421052632" cy="221.0526315789474" fill="#000000"></circle><circle r="11.655000000000001" cx="294.7368421052632" cy="257.89473684210526" fill="#000000"></circle><circle r="11.655000000000001" cx="294.7368421052632" cy="294.7368421052632" fill="#000000"></circle><circle r="11.655000000000001" cx="294.7368421052632" cy="331.5789473684211" fill="#000000"></circle><circle r="11.655000000000001" cx="294.7368421052632" cy="368.42105263157896" fill="#000000"></circle><circle r="11.655000000000001" cx="294.7368421052632" cy="405.2631578947369" fill="#000000"></circle><circle r="11.655000000000001" cx="294.7368421052632" cy="442.1052631578948" fill="#000000"></circle><circle r="11.655000000000001" cx="294.7368421052632" cy="478.94736842105266" fill="#000000"></circle><circle r="11.655000000000001" cx="294.7368421052632" cy="515.7894736842105" fill="#000000"></circle><circle r="11.655000000000001" cx="294.7368421052632" cy="552.6315789473684" fill="#000000"></circle><circle r="11.655000000000001" cx="294.7368421052632" cy="589.4736842105264" fill="#000000"></circle><circle r="11.655000000000001" cx="294.7368421052632" cy="626.3157894736843" fill="#000000"></circle><circle r="11.655000000000001" cx="294.7368421052632" cy="663.1578947368422" fill="#000000"></circle><circle r="11.655000000000001" cx="294.7368421052632" cy="700" fill="#000000"></circle><circle r="11.655000000000001" cx="331.5789473684211" cy="0" fill="#000000"></circle><circle r="11.655000000000001" cx="331.5789473684211" cy="36.8421052631579" fill="#000000"></circle><circle r="11.655000000000001" cx="331.5789473684211" cy="73.6842105263158" fill="#000000"></circle><circle r="11.655000000000001" cx="331.5789473684211" cy="110.5263157894737" fill="#000000"></circle><circle r="11.655000000000001" cx="331.5789473684211" cy="147.3684210526316" fill="#000000"></circle><circle r="11.655000000000001" cx="331.5789473684211" cy="184.21052631578948" fill="#000000"></circle><circle r="11.655000000000001" cx="331.5789473684211" cy="221.0526315789474" fill="#000000"></circle><circle r="11.655000000000001" cx="331.5789473684211" cy="257.89473684210526" fill="#000000"></circle><circle r="11.655000000000001" cx="331.5789473684211" cy="294.7368421052632" fill="#000000"></circle><circle r="11.655000000000001" cx="331.5789473684211" cy="331.5789473684211" fill="#000000"></circle><circle r="11.655000000000001" cx="331.5789473684211" cy="368.42105263157896" fill="#000000"></circle><circle r="11.655000000000001" cx="331.5789473684211" cy="405.2631578947369" fill="#000000"></circle><circle r="11.655000000000001" cx="331.5789473684211" cy="442.1052631578948" fill="#000000"></circle><circle r="11.655000000000001" cx="331.5789473684211" cy="478.94736842105266" fill="#000000"></circle><circle r="11.655000000000001" cx="331.5789473684211" cy="515.7894736842105" fill="#000000"></circle><circle r="11.655000000000001" cx="331.5789473684211" cy="552.6315789473684" fill="#000000"></circle><circle r="11.655000000000001" cx="331.5789473684211" cy="589.4736842105264" fill="#000000"></circle><circle r="11.655000000000001" cx="331.5789473684211" cy="626.3157894736843" fill="#000000"></circle><circle r="11.655000000000001" cx="331.5789473684211" cy="663.1578947368422" fill="#000000"></circle><circle r="11.655000000000001" cx="331.5789473684211" cy="700" fill="#000000"></circle><circle r="11.655000000000001" cx="368.42105263157896" cy="0" fill="#000000"></circle><circle r="11.655000000000001" cx="368.42105263157896" cy="36.8421052631579" fill="#000000"></circle><circle r="11.655000000000001" cx="368.42105263157896" cy="73.6842105263158" fill="#000000"></circle><circle r="11.655000000000001" cx="368.42105263157896" cy="110.5263157894737" fill="#000000"></circle><circle r="11.655000000000001" cx="368.42105263157896" cy="147.3684210526316" fill="#000000"></circle><circle r="11.655000000000001" cx="368.42105263157896" cy="184.21052631578948" fill="#000000"></circle><circle r="11.655000000000001" cx="368.42105263157896" cy="221.0526315789474" fill="#000000"></circle><circle r="11.655000000000001" cx="368.42105263157896" cy="257.89473684210526" fill="#000000"></circle><circle r="11.655000000000001" cx="368.42105263157896" cy="294.7368421052632" fill="#000000"></circle><circle r="11.655000000000001" cx="368.42105263157896" cy="331.5789473684211" fill="#000000"></circle><circle r="11.655000000000001" cx="368.42105263157896" cy="368.42105263157896" fill="#000000"></circle><circle r="11.655000000000001" cx="368.42105263157896" cy="405.2631578947369" fill="#000000"></circle><circle r="11.655000000000001" cx="368.42105263157896" cy="442.1052631578948" fill="#000000"></circle><circle r="11.655000000000001" cx="368.42105263157896" cy="478.94736842105266" fill="#000000"></circle><circle r="11.655000000000001" cx="368.42105263157896" cy="515.7894736842105" fill="#000000"></circle><circle r="11.655000000000001" cx="368.42105263157896" cy="552.6315789473684" fill="#000000"></circle><circle r="11.655000000000001" cx="368.42105263157896" cy="589.4736842105264" fill="#000000"></circle><circle r="11.655000000000001" cx="368.42105263157896" cy="626.3157894736843" fill="#000000"></circle><circle r="11.655000000000001" cx="368.42105263157896" cy="663.1578947368422" fill="#000000"></circle><circle r="11.655000000000001" cx="368.42105263157896" cy="700" fill="#000000"></circle><circle r="11.655000000000001" cx="405.2631578947369" cy="0" fill="#000000"></circle><circle r="11.655000000000001" cx="405.2631578947369" cy="36.8421052631579" fill="#000000"></circle><circle r="11.655000000000001" cx="405.2631578947369" cy="73.6842105263158" fill="#000000"></circle><circle r="11.655000000000001" cx="405.2631578947369" cy="110.5263157894737" fill="#000000"></circle><circle r="11.655000000000001" cx="405.2631578947369" cy="147.3684210526316" fill="#000000"></circle><circle r="11.655000000000001" cx="405.2631578947369" cy="184.21052631578948" fill="#000000"></circle><circle r="11.655000000000001" cx="405.2631578947369" cy="221.0526315789474" fill="#000000"></circle><circle r="11.655000000000001" cx="405.2631578947369" cy="257.89473684210526" fill="#000000"></circle><circle r="11.655000000000001" cx="405.2631578947369" cy="294.7368421052632" fill="#000000"></circle><circle r="11.655000000000001" cx="405.2631578947369" cy="331.5789473684211" fill="#000000"></circle><circle r="11.655000000000001" cx="405.2631578947369" cy="368.42105263157896" fill="#000000"></circle><circle r="11.655000000000001" cx="405.2631578947369" cy="405.2631578947369" fill="#000000"></circle><circle r="11.655000000000001" cx="405.2631578947369" cy="442.1052631578948" fill="#000000"></circle><circle r="11.655000000000001" cx="405.2631578947369" cy="478.94736842105266" fill="#000000"></circle><circle r="11.655000000000001" cx="405.2631578947369" cy="515.7894736842105" fill="#000000"></circle><circle r="11.655000000000001" cx="405.2631578947369" cy="552.6315789473684" fill="#000000"></circle><circle r="11.655000000000001" cx="405.2631578947369" cy="589.4736842105264" fill="#000000"></circle><circle r="11.655000000000001" cx="405.2631578947369" cy="626.3157894736843" fill="#000000"></circle><circle r="11.655000000000001" cx="405.2631578947369" cy="663.1578947368422" fill="#000000"></circle><circle r="11.655000000000001" cx="405.2631578947369" cy="700" fill="#000000"></circle><circle r="11.655000000000001" cx="442.1052631578948" cy="0" fill="#000000"></circle><circle r="11.655000000000001" cx="442.1052631578948" cy="36.8421052631579" fill="#000000"></circle><circle r="11.655000000000001" cx="442.1052631578948" cy="73.6842105263158" fill="#000000"></circle><circle r="11.655000000000001" cx="442.1052631578948" cy="110.5263157894737" fill="#000000"></circle><circle r="11.655000000000001" cx="442.1052631578948" cy="147.3684210526316" fill="#000000"></circle><circle r="11.655000000000001" cx="442.1052631578948" cy="184.21052631578948" fill="#000000"></circle><circle r="11.655000000000001" cx="442.1052631578948" cy="221.0526315789474" fill="#000000"></circle><circle r="11.655000000000001" cx="442.1052631578948" cy="257.89473684210526" fill="#000000"></circle><circle r="11.655000000000001" cx="442.1052631578948" cy="294.7368421052632" fill="#000000"></circle><circle r="11.655000000000001" cx="442.1052631578948" cy="331.5789473684211" fill="#000000"></circle><circle r="11.655000000000001" cx="442.1052631578948" cy="368.42105263157896" fill="#000000"></circle><circle r="11.655000000000001" cx="442.1052631578948" cy="405.2631578947369" fill="#000000"></circle><circle r="11.655000000000001" cx="442.1052631578948" cy="442.1052631578948" fill="#000000"></circle><circle r="11.655000000000001" cx="442.1052631578948" cy="478.94736842105266" fill="#000000"></circle><circle r="11.655000000000001" cx="442.1052631578948" cy="515.7894736842105" fill="#000000"></circle><circle r="11.655000000000001" cx="442.1052631578948" cy="552.6315789473684" fill="#000000"></circle><circle r="11.655000000000001" cx="442.1052631578948" cy="589.4736842105264" fill="#000000"></circle><circle r="11.655000000000001" cx="442.1052631578948" cy="626.3157894736843" fill="#000000"></circle><circle r="11.655000000000001" cx="442.1052631578948" cy="663.1578947368422" fill="#000000"></circle><circle r="11.655000000000001" cx="442.1052631578948" cy="700" fill="#000000"></circle><circle r="11.655000000000001" cx="478.94736842105266" cy="0" fill="#000000"></circle><circle r="11.655000000000001" cx="478.94736842105266" cy="36.8421052631579" fill="#000000"></circle><circle r="11.655000000000001" cx="478.94736842105266" cy="73.6842105263158" fill="#000000"></circle><circle r="11.655000000000001" cx="478.94736842105266" cy="110.5263157894737" fill="#000000"></circle><circle r="11.655000000000001" cx="478.94736842105266" cy="147.3684210526316" fill="#000000"></circle><circle r="11.655000000000001" cx="478.94736842105266" cy="184.21052631578948" fill="#000000"></circle><circle r="11.655000000000001" cx="478.94736842105266" cy="221.0526315789474" fill="#000000"></circle><circle r="11.655000000000001" cx="478.94736842105266" cy="257.89473684210526" fill="#000000"></circle><circle r="11.655000000000001" cx="478.94736842105266" cy="294.7368421052632" fill="#000000"></circle><circle r="11.655000000000001" cx="478.94736842105266" cy="331.5789473684211" fill="#000000"></circle><circle r="11.655000000000001" cx="478.94736842105266" cy="368.42105263157896" fill="#000000"></circle><circle r="11.655000000000001" cx="478.94736842105266" cy="405.2631578947369" fill="#000000"></circle><circle r="11.655000000000001" cx="478.94736842105266" cy="442.1052631578948" fill="#000000"></circle><circle r="11.655000000000001" cx="478.94736842105266" cy="478.94736842105266" fill="#000000"></circle><circle r="11.655000000000001" cx="478.94736842105266" cy="515.7894736842105" fill="#000000"></circle><circle r="11.655000000000001" cx="478.94736842105266" cy="552.6315789473684" fill="#000000"></circle><circle r="11.655000000000001" cx="478.94736842105266" cy="589.4736842105264" fill="#000000"></circle><circle r="11.655000000000001" cx="478.94736842105266" cy="626.3157894736843" fill="#000000"></circle><circle r="11.655000000000001" cx="478.94736842105266" cy="663.1578947368422" fill="#000000"></circle><circle r="11.655000000000001" cx="478.94736842105266" cy="700" fill="#000000"></circle><circle r="11.655000000000001" cx="515.7894736842105" cy="0" fill="#000000"></circle><circle r="11.655000000000001" cx="515.7894736842105" cy="36.8421052631579" fill="#000000"></circle><circle r="11.655000000000001" cx="515.7894736842105" cy="73.6842105263158" fill="#000000"></circle><circle r="11.655000000000001" cx="515.7894736842105" cy="110.5263157894737" fill="#000000"></circle><circle r="11.655000000000001" cx="515.7894736842105" cy="147.3684210526316" fill="#000000"></circle><circle r="11.655000000000001" cx="515.7894736842105" cy="184.21052631578948" fill="#000000"></circle><circle r="11.655000000000001" cx="515.7894736842105" cy="221.0526315789474" fill="#000000"></circle><circle r="11.655000000000001" cx="515.7894736842105" cy="257.89473684210526" fill="#000000"></circle><circle r="11.655000000000001" cx="515.7894736842105" cy="294.7368421052632" fill="#000000"></circle><circle r="11.655000000000001" cx="515.7894736842105" cy="331.5789473684211" fill="#000000"></circle><circle r="11.655000000000001" cx="515.7894736842105" cy="368.42105263157896" fill="#000000"></circle><circle r="11.655000000000001" cx="515.7894736842105" cy="405.2631578947369" fill="#000000"></circle><circle r="11.655000000000001" cx="515.7894736842105" cy="442.1052631578948" fill="#000000"></circle><circle r="11.655000000000001" cx="515.7894736842105" cy="478.94736842105266" fill="#000000"></circle><circle r="11.655000000000001" cx="515.7894736842105" cy="515.7894736842105" fill="#000000"></circle><circle r="11.655000000000001" cx="515.7894736842105" cy="552.6315789473684" fill="#000000"></circle><circle r="11.655000000000001" cx="515.7894736842105" cy="589.4736842105264" fill="#000000"></circle><circle r="11.655000000000001" cx="515.7894736842105" cy="626.3157894736843" fill="#000000"></circle><circle r="11.655000000000001" cx="515.7894736842105" cy="663.1578947368422" fill="#000000"></circle><circle r="11.655000000000001" cx="515.7894736842105" cy="700" fill="#000000"></circle><circle r="11.655000000000001" cx="552.6315789473684" cy="0" fill="#000000"></circle><circle r="11.655000000000001" cx="552.6315789473684" cy="36.8421052631579" fill="#000000"></circle><circle r="11.655000000000001" cx="552.6315789473684" cy="73.6842105263158" fill="#000000"></circle><circle r="11.655000000000001" cx="552.6315789473684" cy="110.5263157894737" fill="#000000"></circle><circle r="11.655000000000001" cx="552.6315789473684" cy="147.3684210526316" fill="#000000"></circle><circle r="11.655000000000001" cx="552.6315789473684" cy="184.21052631578948" fill="#000000"></circle><circle r="11.655000000000001" cx="552.6315789473684" cy="221.0526315789474" fill="#000000"></circle><circle r="11.655000000000001" cx="552.6315789473684" cy="257.89473684210526" fill="#000000"></circle><circle r="11.655000000000001" cx="552.6315789473684" cy="294.7368421052632" fill="#000000"></circle><circle r="11.655000000000001" cx="552.6315789473684" cy="331.5789473684211" fill="#000000"></circle><circle r="11.655000000000001" cx="552.6315789473684" cy="368.42105263157896" fill="#000000"></circle><circle r="11.655000000000001" cx="552.6315789473684" cy="405.2631578947369" fill="#000000"></circle><circle r="11.655000000000001" cx="552.6315789473684" cy="442.1052631578948" fill="#000000"></circle><circle r="11.655000000000001" cx="552.6315789473684" cy="478.94736842105266" fill="#000000"></circle><circle r="11.655000000000001" cx="552.6315789473684" cy="515.7894736842105" fill="#000000"></circle><circle r="11.655000000000001" cx="552.6315789473684" cy="552.6315789473684" fill="#000000"></circle><circle r="11.655000000000001" cx="552.6315789473684" cy="589.4736842105264" fill="#000000"></circle><circle r="11.655000000000001" cx="552.6315789473684" cy="626.3157894736843" fill="#000000"></circle><circle r="11.655000000000001" cx="552.6315789473684" cy="663.1578947368422" fill="#000000"></circle><circle r="11.655000000000001" cx="552.6315789473684" cy="700" fill="#000000"></circle><circle r="11.655000000000001" cx="589.4736842105264" cy="0" fill="#000000"></circle><circle r="11.655000000000001" cx="589.4736842105264" cy="36.8421052631579" fill="#000000"></circle><circle r="11.655000000000001" cx="589.4736842105264" cy="73.6842105263158" fill="#000000"></circle><circle r="11.655000000000001" cx="589.4736842105264" cy="110.5263157894737" fill="#000000"></circle><circle r="11.655000000000001" cx="589.4736842105264" cy="147.3684210526316" fill="#000000"></circle><circle r="11.655000000000001" cx="589.4736842105264" cy="184.21052631578948" fill="#000000"></circle><circle r="11.655000000000001" cx="589.4736842105264" cy="221.0526315789474" fill="#000000"></circle><circle r="11.655000000000001" cx="589.4736842105264" cy="257.89473684210526" fill="#000000"></circle><circle r="11.655000000000001" cx="589.4736842105264" cy="294.7368421052632" fill="#000000"></circle><circle r="11.655000000000001" cx="589.4736842105264" cy="331.5789473684211" fill="#000000"></circle><circle r="11.655000000000001" cx="589.4736842105264" cy="368.42105263157896" fill="#000000"></circle><circle r="11.655000000000001" cx="589.4736842105264" cy="405.2631578947369" fill="#000000"></circle><circle r="11.655000000000001" cx="589.4736842105264" cy="442.1052631578948" fill="#000000"></circle><circle r="11.655000000000001" cx="589.4736842105264" cy="478.94736842105266" fill="#000000"></circle><circle r="11.655000000000001" cx="589.4736842105264" cy="515.7894736842105" fill="#000000"></circle><circle r="11.655000000000001" cx="589.4736842105264" cy="552.6315789473684" fill="#000000"></circle><circle r="11.655000000000001" cx="589.4736842105264" cy="589.4736842105264" fill="#000000"></circle><circle r="11.655000000000001" cx="589.4736842105264" cy="626.3157894736843" fill="#000000"></circle><circle r="11.655000000000001" cx="589.4736842105264" cy="663.1578947368422" fill="#000000"></circle><circle r="11.655000000000001" cx="589.4736842105264" cy="700" fill="#000000"></circle><circle r="11.655000000000001" cx="626.3157894736843" cy="0" fill="#000000"></circle><circle r="11.655000000000001" cx="626.3157894736843" cy="36.8421052631579" fill="#000000"></circle><circle r="11.655000000000001" cx="626.3157894736843" cy="73.6842105263158" fill="#000000"></circle><circle r="11.655000000000001" cx="626.3157894736843" cy="110.5263157894737" fill="#000000"></circle><circle r="11.655000000000001" cx="626.3157894736843" cy="147.3684210526316" fill="#000000"></circle><circle r="11.655000000000001" cx="626.3157894736843" cy="184.21052631578948" fill="#000000"></circle><circle r="11.655000000000001" cx="626.3157894736843" cy="221.0526315789474" fill="#000000"></circle><circle r="11.655000000000001" cx="626.3157894736843" cy="257.89473684210526" fill="#000000"></circle><circle r="11.655000000000001" cx="626.3157894736843" cy="294.7368421052632" fill="#000000"></circle><circle r="11.655000000000001" cx="626.3157894736843" cy="331.5789473684211" fill="#000000"></circle><circle r="11.655000000000001" cx="626.3157894736843" cy="368.42105263157896" fill="#000000"></circle><circle r="11.655000000000001" cx="626.3157894736843" cy="405.2631578947369" fill="#000000"></circle><circle r="11.655000000000001" cx="626.3157894736843" cy="442.1052631578948" fill="#000000"></circle><circle r="11.655000000000001" cx="626.3157894736843" cy="478.94736842105266" fill="#000000"></circle><circle r="11.655000000000001" cx="626.3157894736843" cy="515.7894736842105" fill="#000000"></circle><circle r="11.655000000000001" cx="626.3157894736843" cy="552.6315789473684" fill="#000000"></circle><circle r="11.655000000000001" cx="626.3157894736843" cy="589.4736842105264" fill="#000000"></circle><circle r="11.655000000000001" cx="626.3157894736843" cy="626.3157894736843" fill="#000000"></circle><circle r="11.655000000000001" cx="626.3157894736843" cy="663.1578947368422" fill="#000000"></circle><circle r="11.655000000000001" cx="626.3157894736843" cy="700" fill="#000000"></circle><circle r="11.655000000000001" cx="663.1578947368422" cy="0" fill="#000000"></circle><circle r="11.655000000000001" cx="663.1578947368422" cy="36.8421052631579" fill="#000000"></circle><circle r="11.655000000000001" cx="663.1578947368422" cy="73.6842105263158" fill="#000000"></circle><circle r="11.655000000000001" cx="663.1578947368422" cy="110.5263157894737" fill="#000000"></circle><circle r="11.655000000000001" cx="663.1578947368422" cy="147.3684210526316" fill="#000000"></circle><circle r="11.655000000000001" cx="663.1578947368422" cy="184.21052631578948" fill="#000000"></circle><circle r="11.655000000000001" cx="663.1578947368422" cy="221.0526315789474" fill="#000000"></circle><circle r="11.655000000000001" cx="663.1578947368422" cy="257.89473684210526" fill="#000000"></circle><circle r="11.655000000000001" cx="663.1578947368422" cy="294.7368421052632" fill="#000000"></circle><circle r="11.655000000000001" cx="663.1578947368422" cy="331.5789473684211" fill="#000000"></circle><circle r="11.655000000000001" cx="663.1578947368422" cy="368.42105263157896" fill="#000000"></circle><circle r="11.655000000000001" cx="663.1578947368422" cy="405.2631578947369" fill="#000000"></circle><circle r="11.655000000000001" cx="663.1578947368422" cy="442.1052631578948" fill="#000000"></circle><circle r="11.655000000000001" cx="663.1578947368422" cy="478.94736842105266" fill="#000000"></circle><circle r="11.655000000000001" cx="663.1578947368422" cy="515.7894736842105" fill="#000000"></circle><circle r="11.655000000000001" cx="663.1578947368422" cy="552.6315789473684" fill="#000000"></circle><circle r="11.655000000000001" cx="663.1578947368422" cy="589.4736842105264" fill="#000000"></circle><circle r="11.655000000000001" cx="663.1578947368422" cy="626.3157894736843" fill="#000000"></circle><circle r="11.655000000000001" cx="663.1578947368422" cy="663.1578947368422" fill="#000000"></circle><circle r="11.655000000000001" cx="663.1578947368422" cy="700" fill="#000000"></circle><circle r="11.655000000000001" cx="700" cy="0" fill="#000000"></circle><circle r="11.655000000000001" cx="700" cy="36.8421052631579" fill="#000000"></circle><circle r="11.655000000000001" cx="700" cy="73.6842105263158" fill="#000000"></circle><circle r="11.655000000000001" cx="700" cy="110.5263157894737" fill="#000000"></circle><circle r="11.655000000000001" cx="700" cy="147.3684210526316" fill="#000000"></circle><circle r="11.655000000000001" cx="700" cy="184.21052631578948" fill="#000000"></circle><circle r="11.655000000000001" cx="700" cy="221.0526315789474" fill="#000000"></circle><circle r="11.655000000000001" cx="700" cy="257.89473684210526" fill="#000000"></circle><circle r="11.655000000000001" cx="700" cy="294.7368421052632" fill="#000000"></circle><circle r="11.655000000000001" cx="700" cy="331.5789473684211" fill="#000000"></circle><circle r="11.655000000000001" cx="700" cy="368.42105263157896" fill="#000000"></circle><circle r="11.655000000000001" cx="700" cy="405.2631578947369" fill="#000000"></circle><circle r="11.655000000000001" cx="700" cy="442.1052631578948" fill="#000000"></circle><circle r="11.655000000000001" cx="700" cy="478.94736842105266" fill="#000000"></circle><circle r="11.655000000000001" cx="700" cy="515.7894736842105" fill="#000000"></circle><circle r="11.655000000000001" cx="700" cy="552.6315789473684" fill="#000000"></circle><circle r="11.655000000000001" cx="700" cy="589.4736842105264" fill="#000000"></circle><circle r="11.655000000000001" cx="700" cy="626.3157894736843" fill="#000000"></circle><circle r="11.655000000000001" cx="700" cy="663.1578947368422" fill="#000000"></circle><circle r="11.655000000000001" cx="700" cy="700" fill="#000000"></circle></g><filter id="noise"><feTurbulence type="turbulence" baseFrequency="0.009 0.011" result="NOISE" numOctaves="1"></feTurbulence><feDisplacementMap in="SourceGraphic" in2="NOISE" scale="300" xChannelSelector="R" yChannelSelector="R"></feDisplacementMap></filter></svg>